<svg width="17" height="20" viewBox="0 0 17 20" fill="none" xmlns="http://www.w3.org/2000/svg">
<path d="M11.0671 7.82843C11.8142 7.07828 12.2338 6.06087 12.2338 5C12.2338 3.93913 11.8142 2.92172 11.0671 2.17157C10.3201 1.42143 9.30691 1 8.25045 1C7.19399 1 6.18081 1.42143 5.43378 2.17157C4.68675 2.92172 4.26707 3.93913 4.26707 5C4.26707 6.06087 4.68675 7.07828 5.43378 7.82843C6.18081 8.57857 7.19399 9 8.25045 9C9.30691 9 10.3201 8.57857 11.0671 7.82843Z" stroke="white" stroke-width="2" stroke-linecap="round" stroke-linejoin="round"/>
<path d="M3.32127 14.0503C4.62857 12.7375 6.40165 12 8.25045 12C10.0993 12 11.8723 12.7375 13.1796 14.0503C14.4869 15.363 15.2214 17.1435 15.2214 19H1.27954C1.27954 17.1435 2.01397 15.363 3.32127 14.0503Z" stroke="white" stroke-width="2" stroke-linecap="round" stroke-linejoin="round"/>
</svg>
